<?xml version="1.0" encoding="UTF-8" standalone="no"?>
<svg
   height="24"
   viewBox="0 -960 960 960"
   width="24"
   version="1.1"
   id="svg1"
   sodipodi:docname="menuWhite.svg"
   inkscape:version="1.3 (0e150ed6c4, 2023-07-21)"
   xmlns:inkscape="http://www.inkscape.org/namespaces/inkscape"
   xmlns:sodipodi="http://sodipodi.sourceforge.net/DTD/sodipodi-0.dtd"
   xmlns="http://www.w3.org/2000/svg"
   xmlns:svg="http://www.w3.org/2000/svg">
  <defs
     id="defs1" />
  <sodipodi:namedview
     id="namedview1"
     pagecolor="#ffffff"
     bordercolor="#000000"
     borderopacity="0.25"
     inkscape:showpageshadow="2"
     inkscape:pageopacity="0.0"
     inkscape:pagecheckerboard="0"
     inkscape:deskcolor="#d1d1d1"
     inkscape:zoom="34.208333"
     inkscape:cx="11.985384"
     inkscape:cy="12"
     inkscape:window-width="1920"
     inkscape:window-height="1017"
     inkscape:window-x="1912"
     inkscape:window-y="-8"
     inkscape:window-maximized="1"
     inkscape:current-layer="svg1" />
  <path
     d="M120-240v-80h720v80H120Zm0-200v-80h720v80H120Zm0-200v-80h720v80H120Z"
     id="path1"
     style="fill:#ffffff" />
  <path
     style="fill:#ffffff;stroke-width:0.110486;stroke-linecap:round;stroke-linejoin:round;paint-order:markers stroke fill"
     d="M 3.0109622,7.001218 V 6.0073082 H 12 20.989038 V 7.001218 7.9951279 H 12 3.0109622 Z"
     id="path2"
     transform="matrix(40,0,0,40,0,-960)" />
  <path
     style="fill:#ffffff;stroke-width:0.110486;stroke-linecap:round;stroke-linejoin:round;paint-order:markers stroke fill"
     d="M 3.0109622,12 V 11.00609 H 12 20.989038 V 12 12.99391 H 12 3.0109622 Z"
     id="path3"
     transform="matrix(40,0,0,40,0,-960)" />
  <path
     style="fill:#ffffff;stroke-width:0.110486;stroke-linecap:round;stroke-linejoin:round;paint-order:markers stroke fill"
     d="m 3.0109622,16.998782 v -0.99391 H 12 20.989038 v 0.99391 0.99391 H 12 3.0109622 Z"
     id="path4"
     transform="matrix(40,0,0,40,0,-960)" />
  <path
     style="fill:#ffffff;stroke-width:0.110486;stroke-linecap:round;stroke-linejoin:round;paint-order:markers stroke fill"
     d="m 7.5078472,13.001219 c 2.4813255,-0.0041 6.5329698,-0.0041 9.0036538,0 2.470684,0.0041 0.440509,0.0075 -4.511501,0.0075 -4.9520097,0 -6.9734786,-0.0034 -4.4921528,-0.0075 z"
     id="path5"
     transform="matrix(40,0,0,40,0,-960)" />
  <path
     style="fill:#ffffff;stroke-width:0.110486;stroke-linecap:round;stroke-linejoin:round;paint-order:markers stroke fill"
     d="M 3.0109622,12 V 11.00609 H 12 20.989038 V 12 12.99391 H 12 3.0109622 Z"
     id="path6"
     transform="matrix(40,0,0,40,0,-960)" />
  <path
     style="fill:#ffffff;stroke-width:0.110486;stroke-linecap:round;stroke-linejoin:round;paint-order:markers stroke fill"
     d="M 3.0109622,12 V 11.00609 H 12 20.989038 V 12 12.99391 H 12 3.0109622 Z"
     id="path7"
     transform="matrix(40,0,0,40,0,-960)" />
  <path
     style="fill:#ffffff;stroke-width:0.110486;stroke-linecap:round;stroke-linejoin:round;paint-order:markers stroke fill"
     d="m 7.5078472,10.984166 c 2.4813255,-0.0041 6.5329698,-0.0041 9.0036538,0 2.470684,0.0041 0.440509,0.0075 -4.511501,0.0075 -4.9520097,0 -6.9734786,-0.0034 -4.4921528,-0.0075 z"
     id="path8"
     transform="matrix(40,0,0,40,0,-960)" />
  <path
     style="fill:#ffffff;stroke-width:0.110486;stroke-linecap:round;stroke-linejoin:round;paint-order:markers stroke fill"
     d="m 2.9948714,12 c 0,-0.554689 0.00393,-0.781608 0.00874,-0.504263 0.0048,0.277345 0.0048,0.731181 0,1.008526 -0.0048,0.277345 -0.00874,0.05043 -0.00874,-0.504263 z"
     id="path9"
     transform="matrix(40,0,0,40,0,-960)" />
  <path
     style="fill:#ffffff;stroke-width:0.110486;stroke-linecap:round;stroke-linejoin:round;paint-order:markers stroke fill"
     d="M 3.0109622,12 V 11.00609 H 12 20.989038 V 12 12.99391 H 12 3.0109622 Z"
     id="path10"
     transform="matrix(40,0,0,40,0,-960)" />
</svg>
